<svg width="158" height="157" viewBox="0 0 158 157" fill="none" xmlns="http://www.w3.org/2000/svg">
<rect x="3.5" y="3.5" width="151" height="150" stroke="#1EF6F9"/>
<path d="M3.42358 37L0 32.7032V0H27.1441L29.345 1.90968H56V2.86452H30.8122H3.42358V37Z" fill="#1EF6F9"/>
<path d="M154.638 37L158 32.7032V0H131.341L129.179 1.90968H103V2.86452H127.738H154.638V37Z" fill="#1EF6F9"/>
<path d="M154.638 120L158 124.181V156H131.341L129.179 154.142H103V153.213H127.738H154.638V120Z" fill="#1EF6F9"/>
<path d="M37 153.638L32.8194 157H1L1 130.341L2.85806 128.179L2.85806 102H3.7871L3.7871 126.738L3.7871 153.638H37Z" fill="#1EF6F9"/>
<path d="M72.7072 0.810547H68.8716L70.4698 2.89864H74.4652L72.7072 0.810547Z" fill="#1EF6F9"/>
<path d="M79.8267 0.810547H75.9911L77.5893 2.89864H81.5847L79.8267 0.810547Z" fill="#1EF6F9"/>
<path d="M86.9458 0.810547H83.1101L84.7083 2.89864H88.7038L86.9458 0.810547Z" fill="#1EF6F9"/>
<rect width="127" height="127" transform="translate(15 15)" fill="#1EF6F9" fill-opacity="0.15"/>
</svg>
