<svg width="243" height="78" viewBox="0 0 243 78" fill="none" xmlns="http://www.w3.org/2000/svg">
<path d="M2 2H214.715L241 33.4101V76H2V2Z" fill="#9F9F9C" stroke="#9F9F9C" stroke-width="4"/>
<path d="M39.9184 46.544V43.344H44.2064V45.232L45.2624 46.288H51.8864L52.9744 45.2V41.488L51.9184 40.432H43.4384L39.9824 36.976V31.056L43.4384 27.6H53.5504L57.0064 31.056V34.288H52.7184V32.368L51.6624 31.312H45.3264L44.2704 32.368V35.664L45.3264 36.72H53.8064L57.2624 40.176V46.48L53.7424 50H43.3744L39.9184 46.544ZM62.3734 46.16V27.6H66.7254V44.656L68.3574 46.288H74.6294L76.2614 44.656V27.6H80.6134V46.16L76.7734 50H66.2134L62.3734 46.16ZM86.3797 27.6H100.428L103.628 30.8V37.072L102.348 38.384L104.62 40.688V46.544L101.164 50H86.3797V27.6ZM98.1877 36.976L99.3397 35.824V32.368L98.2197 31.248H90.6357V36.976H98.1877ZM98.9557 46.352L100.332 44.976V41.84L98.9557 40.464H90.6357V46.352H98.9557ZM109.097 46.32V31.28L112.777 27.6H123.721L127.337 31.216V34.64H122.985V32.816L121.481 31.312H115.081L113.449 32.944V44.656L115.081 46.288H121.481L122.985 44.784V42.96H127.337V46.384L123.721 50H112.777L109.097 46.32ZM149.586 42.576V50H145.234V43.568L143.314 41.424H136.338V50H131.986V27.6H146.034L149.458 31.056V37.84L147.282 40.048L149.586 42.576ZM136.338 37.84H144.05L145.17 36.72V32.368L144.05 31.248H136.338V37.84ZM155.34 27.6H159.692V50H155.34V27.6ZM165.623 27.6H179.671L182.871 30.8V37.072L181.591 38.384L183.863 40.688V46.544L180.407 50H165.623V27.6ZM177.431 36.976L178.583 35.824V32.368L177.463 31.248H169.879V36.976H177.431ZM178.199 46.352L179.575 44.976V41.84L178.199 40.464H169.879V46.352H178.199ZM188.661 27.6H204.853V31.28H193.013V36.944H203.925V40.56H193.013V46.32H204.853V50H188.661V27.6Z" fill="#7C7C7C"/>
</svg>
