<svg width="64" height="64" viewBox="0 0 64 64" fill="none" xmlns="http://www.w3.org/2000/svg">
<path fill-rule="evenodd" clip-rule="evenodd" d="M31.9999 5.33301C17.2799 5.33301 5.33325 17.2797 5.33325 31.9997C5.33325 46.7197 17.2799 58.6663 31.9999 58.6663C46.7199 58.6663 58.6666 46.7197 58.6666 31.9997C58.6666 17.2797 46.7199 5.33301 31.9999 5.33301ZM31.9999 53.333C20.2399 53.333 10.6666 43.7597 10.6666 31.9997C10.6666 20.2397 20.2399 10.6663 31.9999 10.6663C43.7599 10.6663 53.3332 20.2397 53.3332 31.9997C53.3332 43.7597 43.7599 53.333 31.9999 53.333ZM26.5866 25.253C26.5866 27.1997 28.1066 28.5063 32.8266 29.7063C37.5199 30.933 42.5599 32.9597 42.5866 38.8263C42.5599 43.1197 39.3599 45.4397 35.3066 46.213V50.6663H29.0666V46.133C25.0666 45.3063 21.7066 42.7463 21.4399 38.213H26.0266C26.2666 40.6663 27.9466 42.5863 32.2133 42.5863C36.7733 42.5863 37.8133 40.293 37.8133 38.8797C37.8133 36.9597 36.7733 35.1197 31.5733 33.893C25.7866 32.5063 21.8133 30.1063 21.8133 25.333C21.8133 21.3063 25.0399 18.693 29.0666 17.8397V13.333H35.2799V17.893C39.5999 18.9597 41.7866 22.2397 41.9199 25.813H37.3599C37.2533 23.1997 35.8666 21.4397 32.1866 21.4397C28.6933 21.4397 26.5866 23.013 26.5866 25.253Z" fill="#1EF6F9"/>
</svg>
