<svg width="536" height="786" viewBox="0 0 536 786" fill="none" xmlns="http://www.w3.org/2000/svg">
<path d="M62.0714 353.548C61.5637 356.954 61.3313 359.876 61.5195 363.3C80.1832 370.055 98.2042 382.434 115.761 391.806C122.608 395.462 132.746 402.913 140.927 401.823C148.012 400.88 152.522 392.049 156.055 386.728C165.804 372.044 175.035 356.564 183.748 341.242C188.181 333.447 192.6 327.268 185.94 319.84C173.356 334.963 163.196 353.449 153.209 370.381C150.017 375.791 145.879 387.694 139.209 389.616C132.743 391.48 121.371 383.423 115.877 380.453C105.948 375.083 95.7459 370.232 85.9323 364.657C78.2518 360.295 70.8603 355.056 62.0714 353.548Z" fill="url(#paint0_linear)"/>
<path d="M303.335 668.779C330.922 650.91 357.451 632.171 379.669 607.649C440.329 540.694 473.55 445.476 461.223 355.354C457.036 324.747 448.979 295.998 437.305 267.442C431.994 254.452 423.679 242.407 419.322 229.126C410.569 234.739 411.425 250.908 409.997 260.47C408.423 271.009 406.54 282.33 408.316 292.934C409.34 299.047 412.523 304.581 414.219 310.532C419.116 327.713 423.864 347.337 425.07 365.192C430.785 449.786 401.766 537.046 337.552 594.249C329.457 601.461 320.938 608.148 312.846 615.375C308.746 619.037 303.641 622.684 301.599 627.983C299.023 634.673 299.994 643.441 299.978 650.488C299.963 657.071 300.079 663.003 303.335 668.779Z" fill="url(#paint1_linear)"/>
<path d="M-176.548 389.676C-173.75 424.94 -172.514 460.418 -160.782 494.209C-131.26 579.24 -63.8693 653.466 19.9035 687.49C60.0085 703.778 102.18 709.96 145.141 711.827C139.262 700.825 133.366 682.232 123.04 674.845C113.362 667.921 96.189 669.035 84.7546 666.629C62.2091 661.885 40.403 653.923 19.4184 644.475C-26.9889 623.58 -69.0371 584.924 -96.264 542.267C-110.427 520.077 -122.008 493.31 -129.536 468.103C-132.927 456.749 -132.746 444.137 -136.465 433.18C-140.828 420.324 -153.564 409.627 -163.053 400.406C-167.222 396.356 -171.046 391.656 -176.548 389.676Z" fill="url(#paint2_linear)"/>
<path d="M367.562 174.395C366.646 192.934 362.658 210.843 360.261 229.194C357.708 248.739 356.52 267.659 349.92 286.42C345.979 297.62 342.579 313.708 331.885 320.134C331.389 307.918 333.646 295.234 332.515 283.155C331.322 270.427 325.624 258.999 318.797 248.479C312.47 252.505 297.73 262.134 295.918 269.732C294.883 274.072 298.618 278.585 300.283 282.324C304.842 292.569 312.104 304.298 313.904 315.425C315.101 322.826 312.858 331.044 311.883 338.38C309.047 359.708 305.053 381.723 286.86 396.177C281.273 400.615 275.697 396.268 275.809 389.806C276.128 371.158 281.986 348.673 276.818 330.318C275.283 324.864 266.58 309.555 259.348 313.075C252.264 316.525 242.17 331.639 242.995 339.585C243.649 345.872 248.236 350.926 250.329 356.731C256.427 373.647 258.891 393.77 247.026 408.841C242.191 401.483 236.871 394.436 231.488 387.472C229.513 384.916 226.922 381.301 223.259 381.432C217.273 381.645 215.493 390.949 214.279 395.349C210.043 410.71 203.34 429.444 207.249 445.271C217.738 438.989 217.322 427.525 218.671 416.557C228.36 420.922 233.418 432.745 239.067 441.414C244.816 450.235 253.484 460.11 256.551 470.263C259.891 481.322 258.05 494.765 259.57 506.25C260.922 516.465 264.461 528.587 263.162 538.874C261.732 550.185 248.356 554.651 247.775 565.638C246.362 592.342 255.935 618.578 254.315 645.311C253.425 659.985 240.295 676.116 226.281 680.139C220.495 681.8 214.29 684.1 208.283 684.683C202.39 685.258 197.587 682.752 192.293 680.616C162.75 668.693 156.395 629.855 143.739 603.385C141.56 598.825 138.757 593.509 134.066 591.131C126.629 587.361 118.276 588.291 112.197 581.499C104.852 573.291 101.207 558.961 97.3028 548.806C93.5833 539.131 86.6849 530.321 83.6746 520.508C80.6477 510.633 81.9343 497.437 82.5367 487.21C83.109 477.479 81.0117 463.77 88.5563 456.765C94.8663 467.136 102.571 476.206 115.532 473.43C107.559 458.81 93.9118 446.658 82.8429 434.315C79.4027 430.479 73.9996 422.198 67.9514 423.109C59.3422 424.405 61.7214 442.255 60.5376 448.372C59.3504 454.506 56.1338 458.03 50.0342 454.258C27.6693 440.429 37.5186 414.003 24.509 395.777C18.8317 387.825 5.54827 383.601 -3.74043 382.659C-4.71695 390.168 -7.53617 398.198 -6.46753 405.807C-5.10953 415.486 3.55174 425.643 8.79787 433.66C13.2479 440.458 17.5728 447.322 22.1703 454.026C24.4216 457.31 27.5127 461.076 26.4245 465.365C24.999 470.977 19.1106 469.86 14.8641 468.699C5.16203 466.043 -6.38583 461.453 -13.4369 454.089C-24.0636 442.994 -38.968 427.228 -45.2587 413.162C-49.5172 403.64 -49.0411 389.701 -50.4412 379.364C-51.1776 373.927 -51.6095 367.363 -56.344 363.727C-60.3238 360.67 -66.0851 360.411 -70.878 359.776C-75.2929 359.19 -79.3352 359.101 -83.7437 359.62C-82.8754 368.48 -83.7943 377.456 -81.2473 386.147C-76.9359 400.859 -66.2769 413.168 -59.1225 426.537C-74.9884 423.812 -88.0387 410.178 -98.6142 398.875C-120.462 375.524 -138.242 348.048 -161.703 326.423C-171.362 333.358 -174.878 355.049 -168.408 365.056C-151.576 391.093 -125.821 413.28 -101.212 431.589C-86.7898 442.319 -71.4034 451.16 -56.447 461.016C-44.7053 468.755 -35.5786 476.497 -21.8866 480.906C-4.12922 486.623 14.0528 491.452 32.0296 496.436C39.5076 498.511 49.6403 498.508 55.4778 504.244C62.1472 510.799 55.6318 524.725 55.755 532.906C55.9022 542.801 62.0903 551.864 66.5213 560.383C71.8441 570.619 76.9208 580.911 81.4903 591.518C83.847 596.991 85.459 603.887 89.9342 608.122C97.8348 615.596 110.261 608.977 117.407 618.621C131.066 637.055 135.704 662.491 150.561 679.883C156.173 686.453 165.978 689.21 173.605 692.751C183.263 697.237 193.484 704.901 204.395 705.74C212.748 706.383 222.046 701.92 230.067 699.944C235.607 698.578 241.638 698.621 246.379 695.092C256.802 687.333 262.669 672.908 269.502 662.255C273.687 655.729 278.791 649.673 279.502 641.657C281.385 620.438 273.825 598.067 276.713 576.808C278.446 564.057 292.152 563.874 295.592 553.614C297.609 547.606 295.452 541.083 294.932 535.036C294.033 524.588 293.64 514.043 292.923 503.575C292.15 492.279 292.245 478.664 286.629 468.48C281.848 459.811 267.786 453.014 273.861 441.76C277.498 435.025 284.923 431.233 290.116 425.818C302.255 413.157 314.095 400.142 326.153 387.426C337.783 375.16 342.793 360.198 350.503 345.619C366.834 314.737 379.588 284.26 388.465 250.325C391.745 237.786 397.947 221.395 395.713 208.344C393.621 196.115 377.924 180.381 367.562 174.395Z" fill="url(#paint3_linear)"/>
<path fill-rule="evenodd" clip-rule="evenodd" d="M83.1181 189.385C74.3521 221.848 66.2673 254.594 58.4717 287.313C55.9983 297.697 47.858 313.928 50.7862 324.612C52.5976 331.221 61.9919 334.625 67.3766 337.701C83.5404 346.938 99.2174 356.883 115.251 366.283C121.165 369.75 130.129 376.6 137.172 372.274C142.373 369.079 145.322 360.596 148.231 355.482C156.774 340.46 165.151 325.352 173.742 310.357C177.131 304.443 183.835 296.248 181.751 288.973C178.855 278.855 164.059 269.385 156.86 262.139L156.636 261.914C141.748 246.929 126.808 231.892 112.153 216.692C103.182 207.389 94.5557 195.685 83.1181 189.385ZM140.098 316.311C136.056 326.285 132.122 336.191 129.083 346.515C118.944 344.69 110.281 336.894 102.25 329.667C99.9182 327.569 97.6395 325.518 95.3936 323.676C94.9024 323.273 94.3933 322.867 93.8763 322.455C90.3318 319.631 86.4192 316.513 85.4092 311.989C84.3117 307.074 85.8686 301.048 87.2718 295.617C87.7507 293.763 88.2117 291.979 88.5432 290.332C89.5006 285.574 90.2726 280.717 91.0474 275.842C92.7388 265.199 94.4436 254.472 98.1204 244.516C110.543 249.753 121.606 264.129 130.687 275.931C132.416 278.179 134.074 280.333 135.655 282.313C136.439 283.293 137.32 284.294 138.225 285.322C141.703 289.273 145.542 293.633 145.586 298.815C145.626 303.541 143.466 308.502 141.492 313.036C141.004 314.157 140.528 315.252 140.098 316.311Z" fill="url(#paint4_linear)"/>
<path d="M45.953 88.1529C21.3663 98.4444 -3.60002 108.701 -26.3696 122.79C-66.7287 147.761 -101.141 184.014 -127.304 223.104C-136.892 237.428 -144.269 253.184 -150.865 269.061C-153.534 275.485 -157.626 283.039 -157.686 290.122C-157.765 299.266 -147.913 306.13 -141.485 311.288C-138.668 313.548 -135.066 316.556 -131.142 315.488C-124.01 313.547 -120.991 296.752 -118.745 290.727C-110.229 267.883 -98.263 244.062 -83.6735 224.399C-53.6455 183.929 -13.8004 155.332 31.1702 133.965C50.491 124.786 71.5231 116.434 92.9957 113.766C130.544 109.101 168.863 107.534 205.931 116.455C227.793 121.716 250.094 131.616 270.368 141.197C288.982 149.992 306.703 160.783 322.666 173.81C326.744 177.138 334.996 187.625 341.154 184.909C346.949 182.352 346.148 166.186 346.486 160.926C347.534 144.683 337.663 138.374 325.211 129.907C311.417 120.528 298.323 112.439 283.095 105.499C224.294 78.6977 160.188 67.3098 96.1775 78.3359C79.5846 81.1941 61.618 81.5958 45.953 88.1529Z" fill="url(#paint5_linear)"/>
<defs>
<linearGradient id="paint0_linear" x1="-101.193" y1="714.886" x2="-26.9063" y2="86.6317" gradientUnits="userSpaceOnUse">
<stop stop-color="#1EF6F9"/>
<stop offset="1" stop-color="#FCD11F"/>
</linearGradient>
<linearGradient id="paint1_linear" x1="-101.193" y1="714.886" x2="-26.9063" y2="86.6317" gradientUnits="userSpaceOnUse">
<stop stop-color="#1EF6F9"/>
<stop offset="1" stop-color="#FCD11F"/>
</linearGradient>
<linearGradient id="paint2_linear" x1="-101.193" y1="714.886" x2="-26.9063" y2="86.6317" gradientUnits="userSpaceOnUse">
<stop stop-color="#1EF6F9"/>
<stop offset="1" stop-color="#FCD11F"/>
</linearGradient>
<linearGradient id="paint3_linear" x1="-101.193" y1="714.886" x2="-26.9063" y2="86.6317" gradientUnits="userSpaceOnUse">
<stop stop-color="#1EF6F9"/>
<stop offset="1" stop-color="#FCD11F"/>
</linearGradient>
<linearGradient id="paint4_linear" x1="-101.193" y1="714.886" x2="-26.9063" y2="86.6317" gradientUnits="userSpaceOnUse">
<stop stop-color="#1EF6F9"/>
<stop offset="1" stop-color="#FCD11F"/>
</linearGradient>
<linearGradient id="paint5_linear" x1="-101.193" y1="714.886" x2="-26.9063" y2="86.6317" gradientUnits="userSpaceOnUse">
<stop stop-color="#1EF6F9"/>
<stop offset="1" stop-color="#FCD11F"/>
</linearGradient>
</defs>
</svg>
