<svg width="992" height="3053" viewBox="0 0 992 3053" fill="none" xmlns="http://www.w3.org/2000/svg">
<path d="M402.5 40V203.5L332.5 275V1203L398 1271.5H927L987.5 1345.5V2095.5L843 2234H71L4 2302.5V2973L71 3048.5H726L802 2973V2636" stroke="#1EF6F9" stroke-width="8"/>
<path d="M801 2622L814.856 2630V2646L801 2654L787.144 2646V2630L801 2622Z" fill="#1EF6F9"/>
<path d="M801 2451L815 2464.31V2606.48L801 2615L787 2606.48V2464.31L801 2451Z" fill="#1EF6F9"/>
<path d="M779.5 2535.5C779.5 2573.1 767.5 2594.83 761.5 2597V2619.5L776 2630M747 2609.5V2629L758.5 2638" stroke="#FCD11F" stroke-width="4"/>
<path d="M821 2535C821 2572.6 833 2594.33 839 2596.5V2619L824.5 2629.5M853.5 2609V2628.5L842 2637.5" stroke="#FCD11F" stroke-width="4"/>
<circle cx="402" cy="8" r="8" fill="#1EF6F9"/>
<circle cx="378" cy="24" r="8" fill="#1EF6F9"/>
<path d="M434 24C434 28.4183 430.418 32 426 32C421.582 32 418 28.4183 418 24C418 19.5817 421.582 16 426 16C430.418 16 434 19.5817 434 24Z" fill="#1EF6F9"/>
<path d="M402 24L415.856 32V48L402 56L388.144 48V32L402 24Z" fill="#1EF6F9"/>
<path d="M378 39V54.5L388 61.5" stroke="#FCD11F" stroke-width="4"/>
<path d="M426 39V54.5L416 61.5" stroke="#FCD11F" stroke-width="4"/>
</svg>
