<svg width="479" height="88" viewBox="0 0 479 88" fill="none" xmlns="http://www.w3.org/2000/svg">
<path d="M189.898 8.59397V81.9506H197.292V8.59397H189.898Z" fill="url(#paint0_linear)"/>
<path d="M281.594 8.60954V81.9661H288.989V8.60954H281.594Z" fill="url(#paint1_linear)"/>
<path d="M332.513 8.60954V39.3343C332.513 39.9722 332.534 40.951 332.09 41.5669C331.478 42.0141 330.633 41.9921 329.978 41.9921H302.722V49.2215H329.978C330.633 49.2215 331.662 49.0467 332.175 49.5623C332.72 50.1119 332.513 51.2827 332.513 51.9856V81.9661H339.697V8.60954H332.513Z" fill="url(#paint2_linear)"/>
<path d="M422.73 8.2814V15.7234H451.042C455.781 15.7234 460.901 14.9714 464.987 17.9136C472.145 23.0669 472.561 33.8027 464.987 38.8775C461.173 41.4324 457.104 41.0261 452.732 41.0261C450.803 41.0261 448.824 41.0261 446.817 41.0261V45.9165C446.817 46.8051 446.688 47.8217 446.954 48.6807C447.267 49.686 448.101 50.5905 448.693 51.4449C449.821 53.0723 450.922 54.7219 452.069 56.3353C455.574 61.2657 458.97 66.2733 462.451 71.2192C464.137 73.6128 465.764 76.0472 467.436 78.4486C468.069 79.3595 468.773 80.83 469.732 81.4194C470.434 81.8491 471.596 81.638 472.382 81.638H478.72C477.11 78.3829 474.556 75.4786 472.502 72.495C468.541 66.7436 464.535 61.0235 460.573 55.2722C459.041 53.047 457.123 50.878 455.902 48.4681C461.541 48.4681 466.65 47.443 471.076 43.6269C480.522 35.481 479.914 19.8069 470.058 12.268C467.338 10.1887 463.755 8.68661 460.339 8.31831C457.374 7.99869 454.235 8.2814 451.253 8.2814H422.73Z" fill="url(#paint3_linear)"/>
<path d="M430.125 41.3542C427.907 41.3542 424.985 41.3542 422.73 41.3542V81.7535H430.125V41.3542Z" fill="url(#paint4_linear)"/>
<path d="M211.871 8.60949V16.0515H239.126C243.652 16.0515 248.742 15.2659 252.86 17.4964C254.246 18.2473 255.575 19.3167 256.599 20.5168C261.886 26.7039 259.963 35.8101 253.071 39.8619C250.274 41.507 247.132 41.5668 243.986 41.5668H235.746V48.7961C243.164 48.7961 251.125 49.9248 257.719 45.8053C269.84 38.2326 269.741 19.8492 258.142 11.8977C252.716 8.17792 246.637 8.60949 240.394 8.60949H211.871Z" fill="url(#paint5_linear)"/>
<path d="M211.871 41.5669V81.9661H219.055V41.5669H211.871Z" fill="url(#paint6_linear)"/>
<path d="M120.597 16.0514H153.557C154.92 16.0514 156.457 15.8556 157.783 16.2183C163.949 17.9056 167.924 23.2929 167.924 29.6596H175.319C175.317 27.2518 174.954 24.7354 174.254 22.4303C173.698 20.599 172.714 18.6771 171.619 17.1146C168.339 12.4383 163.211 9.40815 157.571 8.67101C155.85 8.44603 154.023 8.60947 152.289 8.60947H142.782C139.863 8.60947 136.812 8.35347 133.908 8.64573C128.897 9.14993 123.528 11.8645 120.597 16.0514Z" fill="url(#paint7_linear)"/>
<path d="M116.16 27.9587C116.16 30.4496 116.339 33.0401 117.193 35.4007C117.9 37.3568 118.84 39.2635 120.089 40.929C123.242 45.1301 128.095 47.9895 133.274 48.7324C135.053 48.9876 136.972 48.7962 138.767 48.7962H149.331C152.323 48.7962 155.513 48.4764 158.417 49.3533C164.12 51.0754 167.924 56.4967 167.924 62.4044H175.108C175.108 59.8159 174.932 57.4382 174.121 54.9624C173.533 53.167 172.597 51.3811 171.483 49.8593C168.513 45.8011 164 42.7982 159.05 41.8781C156.82 41.4635 154.546 41.5669 152.289 41.5669H142.359C139.474 41.5669 136.315 41.892 133.485 41.2277C127.372 39.7925 123.469 34.0911 123.344 27.9587H116.16Z" fill="url(#paint8_linear)"/>
<path d="M116.16 60.7034C116.16 63.1724 116.327 65.5657 117.078 67.9327C117.685 69.8459 118.516 71.599 119.661 73.2484C120.613 74.6194 121.634 75.8784 122.921 76.9449C125.007 78.6732 127.303 80.0961 129.893 80.9243C135.158 82.6072 141.141 81.9661 146.585 81.9661C152.095 81.9661 157.834 82.4148 163.065 80.347C166.193 79.1103 168.104 76.7123 170.671 74.7368C169.727 74.3381 168.518 74.5242 167.502 74.5242H143.204C139.816 74.5242 136.131 74.9615 132.851 73.9779C126.938 72.2044 123.468 66.7422 123.344 60.7034H116.16Z" fill="url(#paint9_linear)"/>
<path d="M354.486 8.49409V15.9361H408.574V8.49409H354.486Z" fill="url(#paint10_linear)"/>
<path d="M354.275 41.5669V49.0088H408.363V41.5669H354.275Z" fill="url(#paint11_linear)"/>
<path d="M354.275 74.3115V81.9661H408.363V74.3115H354.275Z" fill="url(#paint12_linear)"/>
<path d="M34.7069 35.8782C34.5166 36.3118 34.3803 36.691 34.2816 37.1522C36.5139 38.7221 38.4579 41.0153 40.4489 42.8925C41.2253 43.6248 42.3014 44.9794 43.4262 45.1302C44.4002 45.2608 45.3175 44.252 45.9782 43.6736C47.8018 42.0773 49.5855 40.3568 51.2947 38.6385C52.1643 37.7643 52.9737 37.1042 52.3582 35.8782C50.1427 37.4303 48.1272 39.516 46.1909 41.4019C45.572 42.0045 44.5933 43.4343 43.6389 43.4485C42.7138 43.4623 41.4959 41.9828 40.8742 41.3904C39.7507 40.3195 38.5723 39.3075 37.4716 38.2136C36.6101 37.3575 35.8185 36.3956 34.7069 35.8782Z" fill="url(#paint13_linear)"/>
<path d="M55.3355 86.4122C59.6407 85.0374 63.8371 83.5091 67.6702 81.0577C78.1357 74.3645 85.9809 62.9309 87.5993 50.5288C88.1489 46.3169 88.1178 42.2117 87.6 38.0015C87.3643 36.0863 86.6959 34.1881 86.5975 32.2686C85.2334 32.6973 84.7632 34.8735 84.2286 36.0905C83.6393 37.432 82.9807 38.8661 82.8335 40.3371C82.7486 41.1851 82.9711 42.0342 82.9813 42.885C83.0106 45.3412 82.9322 48.1164 82.4475 50.5288C80.1516 61.9586 73.151 72.4882 62.5662 77.7592C61.2317 78.4238 59.86 79.0035 58.5255 79.6702C57.8492 80.008 57.0403 80.3076 56.5781 80.9369C55.9948 81.7315 55.807 82.9298 55.5505 83.8643C55.3109 84.7372 55.112 85.5283 55.3355 86.4122Z" fill="url(#paint14_linear)"/>
<path d="M1.74363 32.0563C0.841658 36.836 -0.27522 41.5877 0.0613383 46.4946C0.908227 58.8419 7.16943 71.1229 17.0556 78.6616C21.7885 82.2706 27.1604 84.6134 32.7929 86.4122C32.4101 84.7401 32.2991 82.0606 31.1958 80.7076C30.1618 79.4396 27.8431 78.9674 26.4129 78.2353C23.593 76.7919 20.9873 74.9482 18.5443 72.937C13.1415 68.4894 8.95844 61.8425 6.88618 55.2C5.8082 51.7446 5.23814 47.7751 5.14942 44.159C5.10944 42.5302 5.58883 40.8634 5.49105 39.2755C5.37633 37.4123 4.07269 35.5332 3.14663 33.9673C2.73985 33.2793 2.40211 32.5177 1.74363 32.0563Z" fill="url(#paint15_linear)"/>
<path d="M81.7061 23.1385C80.9152 25.565 79.7396 27.7972 78.759 30.1454C77.7146 32.6464 76.8739 35.1136 75.3208 37.3645C74.3936 38.7081 73.3618 40.7199 71.7108 41.1864C72.0862 39.5477 72.8435 37.9463 73.1295 36.3029C73.4309 34.5711 73.0874 32.8491 72.5615 31.207C71.5766 31.5128 69.2735 32.258 68.7586 33.2008C68.4647 33.7392 68.7973 34.4728 68.8832 35.0289C69.1182 36.5528 69.6582 38.3711 69.4953 39.9124C69.3868 40.9376 68.7926 41.947 68.3983 42.885C67.2521 45.6124 65.9274 48.389 62.9917 49.6498C62.0902 50.0369 61.5073 49.2589 61.7555 48.4055C62.4711 45.943 64.0602 43.1712 64.0372 40.5494C64.0304 39.7704 63.4285 37.425 62.3418 37.631C61.2774 37.8329 59.3926 39.4738 59.2152 40.5577C59.0748 41.4155 59.501 42.2517 59.5691 43.0974C59.7675 45.5618 59.3679 48.3206 57.2495 49.8918C56.8737 48.741 56.4222 47.614 55.9595 46.4957C55.7898 46.0852 55.5765 45.5122 55.0858 45.3973C54.2839 45.2094 53.7118 46.3795 53.392 46.9195C52.2753 48.8045 50.7096 51.0482 50.6569 53.2891C52.2753 52.8343 52.634 51.2983 53.2089 49.8918C54.3368 50.8208 54.581 52.5721 55.0176 53.9261C55.4618 55.3041 56.2553 56.9271 56.2957 58.3849C56.3395 59.9727 55.6099 61.6898 55.397 63.2685C55.2075 64.6726 55.2394 66.4086 54.6956 67.7265C54.0976 69.1757 52.1617 69.2852 51.6879 70.722C50.5363 74.214 50.8591 78.0403 49.679 81.5287C49.0312 83.4435 46.7068 85.1096 44.7022 85.1374C43.8745 85.1489 42.9683 85.23 42.1502 85.0905C41.3476 84.9539 40.8008 84.4482 40.1756 83.9736C36.6864 81.3251 37.2455 75.9428 36.522 71.9739C36.3976 71.2902 36.2177 70.4838 35.6811 69.9989C34.8305 69.2302 33.6887 69.0521 33.1274 67.9314C32.4492 66.5772 32.483 64.5444 32.3316 63.0562C32.1874 61.6382 31.5903 60.2203 31.5452 58.8096C31.5001 57.3902 32.1473 55.6858 32.5964 54.3507C33.0236 53.0804 33.2404 51.1858 34.4942 50.5288C34.957 52.1325 35.6518 53.6142 37.4716 53.7137C36.9416 51.4862 35.5697 49.3812 34.5468 47.3439C34.2288 46.7107 33.8109 45.417 32.9756 45.3196C31.7866 45.1807 31.4578 47.6348 31.0799 48.4036C30.7009 49.1746 30.1469 49.526 29.4738 48.8054C27.0058 46.1632 29.2667 43.0126 28.1987 40.1248C27.7325 38.8648 26.1226 37.8248 24.9243 37.3645C24.5236 38.3255 23.8596 39.289 23.7267 40.3371C23.5574 41.6703 24.3398 43.3307 24.7465 44.5836C25.0914 45.6463 25.4174 46.7131 25.7853 47.7686C25.9655 48.2856 26.2396 48.8969 25.9404 49.4266C25.5486 50.1197 24.8077 49.7589 24.2863 49.4515C23.0949 48.7489 21.7285 47.7229 21.0589 46.4914C20.0495 44.6357 18.6413 42.0058 18.3145 39.9124C18.0933 38.4954 18.6597 36.6632 18.8472 35.2412C18.9458 34.4932 19.1255 33.6067 18.6286 32.9534C18.211 32.4041 17.4559 32.1618 16.8429 31.9045C16.2784 31.6673 15.7453 31.5096 15.1416 31.4193C14.9369 32.6262 14.491 33.7838 14.5151 35.0289C14.5559 37.1365 15.5257 39.1544 15.9923 41.1864C13.9856 40.2522 12.7464 37.972 11.7514 36.0905C9.69576 32.2037 8.3288 27.9163 5.99696 24.2002C4.46504 24.7716 3.21544 27.5225 3.71244 29.0837C5.0056 33.146 7.62167 37.0195 10.2257 40.3371C11.7517 42.2814 13.4739 44.0099 15.1024 45.8576C16.3808 47.3082 17.3122 48.665 18.9696 49.7443C21.1191 51.1439 23.3571 52.4411 25.5623 53.7513C26.4795 54.2966 27.824 54.662 28.3913 55.6338C29.0396 56.7443 27.6723 58.3567 27.3933 59.4466C27.0556 60.7647 27.5494 62.1905 27.8297 63.4808C28.1663 65.031 28.4683 66.5797 28.6916 68.152C28.8067 68.9633 28.7716 69.9364 29.2125 70.6598C29.9908 71.9368 31.8784 71.5072 32.4784 73.0447C33.6251 75.9835 33.322 79.5258 34.6652 82.3697C35.1726 83.4439 36.374 84.1637 37.258 84.9089C38.3775 85.8527 39.4568 87.2386 40.8742 87.7439C41.9592 88.1308 43.3539 87.8743 44.4895 87.9017C45.2739 87.9206 46.0724 88.144 46.8289 87.8469C48.4919 87.1938 49.7911 85.4918 51.0822 84.325C51.8731 83.6103 52.7689 82.9912 53.1527 81.9533C54.1686 79.206 53.9732 75.9651 55.1239 73.2487C55.8142 71.6196 57.6393 72.0901 58.4662 70.8531C58.9506 70.1288 58.9 69.1854 59.0493 68.3644C59.3073 66.9458 59.6358 65.5325 59.9187 64.1178C60.2239 62.5912 60.7281 60.7883 60.3506 59.2343C60.0293 57.9115 58.409 56.502 59.6214 55.2283C60.347 54.466 61.469 54.231 62.3535 53.6999C64.4213 52.4585 66.462 51.1592 68.5208 49.9073C70.5067 48.6998 71.7117 46.8957 73.261 45.2397C76.5426 41.7321 79.3351 38.1491 81.738 33.9673C82.6259 32.4219 84.0406 30.4713 84.2154 28.6591C84.3794 26.9611 82.8647 24.3068 81.7061 23.1385Z" fill="url(#paint16_linear)"/>
<path fill-rule="evenodd" clip-rule="evenodd" d="M43.4262 14.8578C41.0911 18.8483 38.8362 22.9009 36.6207 26.9604C35.9176 28.2488 34.2516 30.1084 34.2543 31.6317C34.2561 32.574 35.3796 33.3647 35.9829 33.9673C37.794 35.7763 39.5149 37.6618 41.3027 39.4878C41.9622 40.1613 42.9041 41.3938 43.9949 41.0741C44.8003 40.838 45.4978 39.819 46.0684 39.2455C47.7442 37.5609 49.4011 35.8589 51.0822 34.1796C51.7453 33.5173 52.9307 32.6721 52.9169 31.6317C52.8979 30.1846 51.2768 28.3941 50.5833 27.1728L50.5617 27.1348C49.1274 24.6092 47.6881 22.0747 46.2925 19.529C45.4383 17.9708 44.7163 16.1065 43.4262 14.8578ZM46.4035 33.7549C45.5072 34.9323 44.6276 36.1045 43.8515 37.3645C42.5723 36.7564 41.7044 35.4092 40.8999 34.1605C40.6662 33.7978 40.4379 33.4435 40.2064 33.118C40.1558 33.0468 40.1029 32.9746 40.0492 32.9012C39.6809 32.3986 39.2744 31.8437 39.3037 31.207C39.3356 30.5152 39.7597 29.772 40.1419 29.102C40.2724 28.8734 40.398 28.6533 40.5014 28.4467C40.8002 27.8501 41.078 27.2335 41.3568 26.6147C41.9655 25.2637 42.579 23.902 43.4262 22.7139C44.8854 23.8572 45.834 26.164 46.6128 28.0576C46.7611 28.4183 46.9032 28.7639 47.0415 29.0837C47.1101 29.2421 47.1908 29.4066 47.2738 29.5758C47.5927 30.2255 47.9445 30.9426 47.7633 31.6317C47.5979 32.2602 47.1324 32.8403 46.7068 33.3707C46.6015 33.5018 46.4987 33.6299 46.4035 33.7549Z" fill="url(#paint17_linear)"/>
<path d="M42.1502 0.0848896C38.5166 0.562634 34.8339 1.02211 31.3043 2.06924C25.048 3.9252 19.1736 7.49259 14.291 11.7343C12.5018 13.2886 10.9542 15.1127 9.5058 16.981C8.91978 17.7369 8.1042 18.5914 7.84041 19.5289C7.49985 20.7393 8.55914 22.0057 9.2257 22.9221C9.51786 23.3237 9.88724 23.8528 10.4464 23.8528C11.4628 23.8528 12.4696 21.7335 12.9851 21.0152C14.9397 18.2918 17.3874 15.5635 20.033 13.4814C25.4781 9.19611 31.797 6.84051 38.5349 5.62932C41.4297 5.10897 44.5217 4.76033 47.4669 5.18159C52.617 5.91822 57.7576 7.09388 62.3535 9.61571C65.0642 11.103 67.6655 13.2217 70.0095 15.2249C72.1615 17.0637 74.1231 19.1352 75.7706 21.4399C76.1915 22.0287 76.9078 23.718 77.8229 23.5799C78.6839 23.45 79.1614 21.2762 79.3962 20.5906C80.1216 18.4733 79.0397 17.2799 77.6934 15.707C76.2019 13.9646 74.7566 12.4187 72.9868 10.948C66.153 5.26924 58.0589 1.44388 49.1682 0.595719C46.8636 0.375868 44.4653 -0.219503 42.1502 0.0848896Z" fill="url(#paint18_linear)"/>
<defs>
<linearGradient id="paint0_linear" x1="183.637" y1="30.6634" x2="427.328" y2="90.0227" gradientUnits="userSpaceOnUse">
<stop stop-color="#1EF6F9"/>
<stop offset="1" stop-color="#FCD11F"/>
</linearGradient>
<linearGradient id="paint1_linear" x1="183.637" y1="30.6634" x2="427.328" y2="90.0227" gradientUnits="userSpaceOnUse">
<stop stop-color="#1EF6F9"/>
<stop offset="1" stop-color="#FCD11F"/>
</linearGradient>
<linearGradient id="paint2_linear" x1="183.637" y1="30.6634" x2="427.328" y2="90.0227" gradientUnits="userSpaceOnUse">
<stop stop-color="#1EF6F9"/>
<stop offset="1" stop-color="#FCD11F"/>
</linearGradient>
<linearGradient id="paint3_linear" x1="183.637" y1="30.6634" x2="427.328" y2="90.0227" gradientUnits="userSpaceOnUse">
<stop stop-color="#1EF6F9"/>
<stop offset="1" stop-color="#FCD11F"/>
</linearGradient>
<linearGradient id="paint4_linear" x1="183.637" y1="30.6634" x2="427.328" y2="90.0227" gradientUnits="userSpaceOnUse">
<stop stop-color="#1EF6F9"/>
<stop offset="1" stop-color="#FCD11F"/>
</linearGradient>
<linearGradient id="paint5_linear" x1="183.637" y1="30.6634" x2="427.328" y2="90.0227" gradientUnits="userSpaceOnUse">
<stop stop-color="#1EF6F9"/>
<stop offset="1" stop-color="#FCD11F"/>
</linearGradient>
<linearGradient id="paint6_linear" x1="183.637" y1="30.6634" x2="427.328" y2="90.0227" gradientUnits="userSpaceOnUse">
<stop stop-color="#1EF6F9"/>
<stop offset="1" stop-color="#FCD11F"/>
</linearGradient>
<linearGradient id="paint7_linear" x1="183.637" y1="30.6634" x2="427.328" y2="90.0227" gradientUnits="userSpaceOnUse">
<stop stop-color="#1EF6F9"/>
<stop offset="1" stop-color="#FCD11F"/>
</linearGradient>
<linearGradient id="paint8_linear" x1="183.637" y1="30.6634" x2="427.328" y2="90.0227" gradientUnits="userSpaceOnUse">
<stop stop-color="#1EF6F9"/>
<stop offset="1" stop-color="#FCD11F"/>
</linearGradient>
<linearGradient id="paint9_linear" x1="183.637" y1="30.6634" x2="427.328" y2="90.0227" gradientUnits="userSpaceOnUse">
<stop stop-color="#1EF6F9"/>
<stop offset="1" stop-color="#FCD11F"/>
</linearGradient>
<linearGradient id="paint10_linear" x1="183.637" y1="30.6634" x2="427.328" y2="90.0227" gradientUnits="userSpaceOnUse">
<stop stop-color="#1EF6F9"/>
<stop offset="1" stop-color="#FCD11F"/>
</linearGradient>
<linearGradient id="paint11_linear" x1="183.637" y1="30.6634" x2="427.328" y2="90.0227" gradientUnits="userSpaceOnUse">
<stop stop-color="#1EF6F9"/>
<stop offset="1" stop-color="#FCD11F"/>
</linearGradient>
<linearGradient id="paint12_linear" x1="183.637" y1="30.6634" x2="427.328" y2="90.0227" gradientUnits="userSpaceOnUse">
<stop stop-color="#1EF6F9"/>
<stop offset="1" stop-color="#FCD11F"/>
</linearGradient>
<linearGradient id="paint13_linear" x1="16.3778" y1="26.7826" x2="78.8816" y2="29.8867" gradientUnits="userSpaceOnUse">
<stop stop-color="#1EF6F9"/>
<stop offset="1" stop-color="#FCD11F"/>
</linearGradient>
<linearGradient id="paint14_linear" x1="16.3778" y1="26.7826" x2="78.8816" y2="29.8867" gradientUnits="userSpaceOnUse">
<stop stop-color="#1EF6F9"/>
<stop offset="1" stop-color="#FCD11F"/>
</linearGradient>
<linearGradient id="paint15_linear" x1="16.3778" y1="26.7826" x2="78.8816" y2="29.8867" gradientUnits="userSpaceOnUse">
<stop stop-color="#1EF6F9"/>
<stop offset="1" stop-color="#FCD11F"/>
</linearGradient>
<linearGradient id="paint16_linear" x1="16.3778" y1="26.7826" x2="78.8816" y2="29.8867" gradientUnits="userSpaceOnUse">
<stop stop-color="#1EF6F9"/>
<stop offset="1" stop-color="#FCD11F"/>
</linearGradient>
<linearGradient id="paint17_linear" x1="16.3778" y1="26.7826" x2="78.8816" y2="29.8867" gradientUnits="userSpaceOnUse">
<stop stop-color="#1EF6F9"/>
<stop offset="1" stop-color="#FCD11F"/>
</linearGradient>
<linearGradient id="paint18_linear" x1="16.3778" y1="26.7826" x2="78.8816" y2="29.8867" gradientUnits="userSpaceOnUse">
<stop stop-color="#1EF6F9"/>
<stop offset="1" stop-color="#FCD11F"/>
</linearGradient>
</defs>
</svg>
