<svg width="64" height="64" viewBox="0 0 64 64" fill="none" xmlns="http://www.w3.org/2000/svg">
<path fill-rule="evenodd" clip-rule="evenodd" d="M31.9733 5.33301C17.2533 5.33301 5.33325 17.253 5.33325 31.9997C5.33325 46.7463 17.2533 58.6663 31.9733 58.6663C46.6933 58.6663 58.6666 46.7463 58.6666 31.9997C58.6666 17.253 46.7199 5.33301 31.9733 5.33301ZM31.9999 53.333C20.2133 53.333 10.6666 43.7863 10.6666 31.9997C10.6666 20.213 20.2133 10.6663 31.9999 10.6663C43.7866 10.6663 53.3332 20.213 53.3332 31.9997C53.3332 43.7863 43.7866 53.333 31.9999 53.333ZM37.4933 29.333L34.6666 26.5063L40.3199 20.853L45.9732 26.5063L43.1466 29.333L40.3199 26.5063L37.4933 29.333ZM23.6799 26.5063L26.5066 29.333L29.3333 26.5063L23.6799 20.853L18.0266 26.5063L20.8533 29.333L23.6799 26.5063ZM45.6266 37.333C43.4933 42.773 38.2133 46.6663 31.9999 46.6663C25.7866 46.6663 20.5066 42.773 18.3733 37.333H45.6266Z" fill="#1EF6F9"/>
</svg>
