<svg width="125" height="120" viewBox="0 0 125 120" fill="none" xmlns="http://www.w3.org/2000/svg">
<path d="M25.8359 23.5176C46.1093 -7.54495 78.9789 -7.54495 99.2522 23.5176L101.692 27.2561C102.706 28.8092 102.706 31.3273 101.692 32.8805L93.3456 45.6689C92.8388 46.4455 92.017 46.4455 91.5102 45.6689L88.1526 40.5244C74.0094 18.8543 51.0787 18.8543 36.9355 40.5244L33.3398 46.0337C32.833 46.8103 32.0112 46.8103 31.5044 46.0337L23.1579 33.2453C22.1442 31.6922 22.1442 29.174 23.1579 27.6209L25.8359 23.5176ZM116.514 49.9655L123.942 61.3473C124.956 62.9004 124.956 65.4185 123.942 66.9716L90.4468 118.293C89.4331 119.847 87.7896 119.847 86.776 118.293C86.7759 118.293 86.7759 118.293 86.7759 118.293L63.0031 81.8689C62.7496 81.4806 62.3388 81.4806 62.0854 81.8689H62.0854L38.313 118.293C37.2993 119.847 35.6558 119.847 34.6422 118.293C34.6422 118.293 34.6422 118.293 34.6422 118.293L1.14599 66.971C0.132325 65.4178 0.132325 62.8997 1.14599 61.3466L8.57442 49.9648C9.58809 48.4117 11.2316 48.4117 12.2452 49.9648L36.0185 86.3899C36.2719 86.7782 36.6827 86.7782 36.9362 86.3899C36.9362 86.3899 36.9362 86.3899 36.9362 86.3899L60.7082 49.9648C61.7218 48.4117 63.3653 48.4116 64.379 49.9647C64.379 49.9647 64.379 49.9647 64.3791 49.9648L88.1523 86.3899C88.4057 86.7782 88.8165 86.7782 89.07 86.3899L112.843 49.9655C113.856 48.4124 115.5 48.4124 116.514 49.9655Z" fill="#3B99FC"/>
</svg>
