<svg width="30" height="30" viewBox="0 0 30 30" fill="none" xmlns="http://www.w3.org/2000/svg">
<path fill-rule="evenodd" clip-rule="evenodd" d="M30 15C30 23.2843 23.2843 30 15 30C6.71573 30 0 23.2843 0 15C0 6.71573 6.71573 0 15 0C23.2843 0 30 6.71573 30 15ZM15.5375 11.0736C14.0786 11.6804 11.1627 12.9364 6.78987 14.8416C6.07979 15.1239 5.70782 15.4002 5.67396 15.6703C5.61673 16.1268 6.18839 16.3065 6.96684 16.5513C7.07273 16.5846 7.18244 16.6191 7.29492 16.6557C8.0608 16.9046 9.09103 17.1959 9.62661 17.2074C10.1124 17.2179 10.6547 17.0177 11.2533 16.6066C15.3389 13.8487 17.448 12.4547 17.5804 12.4246C17.6738 12.4034 17.8033 12.3768 17.891 12.4547C17.9787 12.5327 17.97 12.6803 17.9608 12.7199C17.9041 12.9613 15.6602 15.0475 14.4989 16.1271C14.1369 16.4637 13.8801 16.7024 13.8276 16.757C13.71 16.8791 13.5902 16.9946 13.475 17.1057C12.7635 17.7916 12.2299 18.3059 13.5045 19.1459C14.117 19.5495 14.6072 19.8833 15.0962 20.2163C15.6302 20.58 16.1628 20.9427 16.852 21.3945C17.0276 21.5096 17.1953 21.6291 17.3586 21.7456C17.9801 22.1886 18.5384 22.5867 19.2282 22.5232C19.6291 22.4863 20.0431 22.1094 20.2533 20.9854C20.7503 18.3288 21.727 12.573 21.9528 10.2011C21.9726 9.99332 21.9477 9.72737 21.9277 9.61063C21.9077 9.49388 21.866 9.32754 21.7142 9.20441C21.5345 9.05858 21.257 9.02783 21.133 9.03001C20.5688 9.03995 19.7032 9.34093 15.5375 11.0736Z" fill="#1EF6F9"/>
</svg>
