<svg width="30" height="26" viewBox="0 0 30 26" fill="none" xmlns="http://www.w3.org/2000/svg">
<path d="M9.4377 25.1884C20.7557 25.1884 26.9479 15.8093 26.9479 7.67824C26.9479 7.41457 26.942 7.14504 26.9303 6.88137C28.1348 6.01024 29.1744 4.93123 30 3.69504C28.8782 4.19417 27.6871 4.52014 26.4674 4.66184C27.7516 3.89205 28.7132 2.68276 29.1738 1.25812C27.9657 1.97411 26.6445 2.47918 25.2668 2.75168C24.3385 1.76537 23.1112 1.11231 21.7746 0.893479C20.438 0.674648 19.0665 0.902229 17.8722 1.54104C16.6779 2.17984 15.7273 3.1943 15.1673 4.42756C14.6074 5.66081 14.4693 7.04419 14.7744 8.36379C12.3281 8.24103 9.93492 7.60555 7.74998 6.49854C5.56503 5.39153 3.63712 3.83771 2.09121 1.93781C1.3055 3.29247 1.06507 4.89547 1.41879 6.42103C1.77251 7.94659 2.69383 9.28023 3.99551 10.1509C3.01829 10.1199 2.06247 9.85677 1.20703 9.38332V9.45949C1.20616 10.8811 1.69762 12.2592 2.59789 13.3594C3.49815 14.4596 4.75165 15.2141 6.14531 15.4946C5.24007 15.7423 4.28998 15.7784 3.36855 15.6001C3.76182 16.8227 4.52697 17.892 5.55721 18.6588C6.58746 19.4256 7.8314 19.8517 9.11543 19.8775C6.93553 21.5898 4.24272 22.5186 1.4707 22.5142C0.979109 22.5134 0.487999 22.4833 0 22.4239C2.81607 24.2306 6.09191 25.1901 9.4377 25.1884Z" fill="#1EF6F9"/>
</svg>
